<svg width="40" height="40" viewBox="0 0 40 40" fill="none" xmlns="http://www.w3.org/2000/svg">
<g clip-path="url(#clip0_2196_812)">
<path d="M28.1189 7.59533C25.4259 7.19433 22.6359 7.59433 20.0149 8.59433C17.3849 7.58633 14.5839 7.18233 11.8809 7.58433C4.07088 8.74633 0.0608839 17.0573 2.92488 24.9353C5.48988 31.9933 12.6999 35.9083 19.7889 35.8153C27.0119 36.0753 34.4599 32.1453 37.0759 24.9473C39.9389 17.0683 35.9299 8.75833 28.1199 7.59533H28.1189Z" fill="#EF4452"/>
<path d="M29.7082 7.95858L23.9832 8.64358L26.9182 13.1636L20.0002 10.0876L13.5812 13.1636L16.0172 8.64358L10.4082 7.88558C17.2682 6.38458 23.3542 6.29758 29.7082 7.95858Z" fill="#036D50"/>
<path d="M20 8.92983C19.172 8.92983 18.501 8.25783 18.501 7.43083V4.17183C18.501 3.34483 19.172 2.67383 20 2.67383C20.828 2.67383 21.499 3.34483 21.499 4.17183V7.43083C21.499 8.25783 20.828 8.92983 20 8.92983Z" fill="#036D50"/>
</g>
<defs>
<clipPath id="clip0_2196_812">
<rect width="40" height="40" fill="white"/>
</clipPath>
</defs>
</svg>
