<svg width="40" height="40" viewBox="0 0 40 40" fill="none" xmlns="http://www.w3.org/2000/svg">
<g clip-path="url(#clip0_2196_854)">
<path d="M32.5 9.00195H22.5V37.335H32.5C34.341 37.335 35.833 35.843 35.833 34.002V12.335C35.833 10.494 34.341 9.00195 32.5 9.00195Z" fill="#EF4452"/>
<path d="M17.5 9.00195H7.49999C5.65899 9.00195 4.16699 10.494 4.16699 12.335V34.002C4.16699 35.843 5.65899 37.335 7.49999 37.335H17.5V9.00195Z" fill="#EF4452"/>
<path d="M29.46 4.33022V9.00022H22.5V37.3402H17.5V9.00022H10.54V4.33022C10.54 3.15022 11.75 2.34022 12.84 2.79022L20 5.73022L27.16 2.79022C28.25 2.34022 29.46 3.15022 29.46 4.33022Z" fill="#FFCD00"/>
</g>
<defs>
<clipPath id="clip0_2196_854">
<rect width="40" height="40" fill="white"/>
</clipPath>
</defs>
</svg>
