<svg width="40" height="40" viewBox="0 0 40 40" fill="none" xmlns="http://www.w3.org/2000/svg">
<g clip-path="url(#clip0_2196_862)">
<path d="M34.75 20.0002C34.75 18.2052 36.205 16.7502 38 16.7502V8.54616C38 7.64216 37.267 6.91016 36.364 6.91016H3.636C2.732 6.91016 2 7.64316 2 8.54616V16.7502C3.795 16.7502 5.25 18.2052 5.25 20.0002C5.25 21.7952 3.795 23.2502 2 23.2502V31.4542C2 32.3582 2.733 33.0902 3.636 33.0902H36.363C37.267 33.0902 37.999 32.3572 37.999 31.4542V23.2502C36.204 23.2502 34.75 21.7952 34.75 20.0002Z" fill="#F56570"/>
<path d="M25.5061 17.9453L21.7011 17.3923L20.0001 13.9453L18.2991 17.3923L14.4941 17.9453L17.2471 20.6293L16.5971 24.4183L20.0001 22.6293L23.4031 24.4183L22.7531 20.6293L25.5061 17.9453Z" fill="#E32939"/>
</g>
<defs>
<clipPath id="clip0_2196_862">
<rect width="40" height="40" fill="white"/>
</clipPath>
</defs>
</svg>
