<svg width="40" height="40" viewBox="0 0 40 40" fill="none" xmlns="http://www.w3.org/2000/svg">
<g clip-path="url(#clip0_2746_1227)">
<path fill-rule="evenodd" clip-rule="evenodd" d="M38.828 26.683L35.95 12.109C35.948 12.102 35.946 12.095 35.945 12.091L35.94 12.055H35.935C35.121 8.17396 31.63 5.10596 27.66 5.10596H12.339C8.37 5.10596 4.878 8.17396 4.064 12.055H4.059L4.054 12.091C4.054 12.091 4.05 12.102 4.049 12.109L1.171 26.683C1.068 27.134 1 27.599 1 28.08C1 31.514 3.785 34.297 7.219 34.297C9.564 34.297 11.581 32.984 12.641 31.067L14.637 27.72L15.785 25.796C16.143 25.196 16.789 24.829 17.488 24.829H22.514C23.212 24.829 23.859 25.196 24.217 25.796L25.365 27.72L27.361 31.067C28.421 32.984 30.438 34.297 32.783 34.297C36.217 34.297 39.002 31.514 39.002 28.08C39.002 27.599 38.934 27.134 38.831 26.683H38.828Z" fill="#D0C4BF"/>
<path d="M17.7796 13.6549H8.55859V16.1339H17.7796V13.6549Z" fill="#767676"/>
<path d="M14.4087 10.2839H11.9297V19.5049H14.4087V10.2839Z" fill="#767676"/>
<path d="M24.3123 16.344C25.1125 16.344 25.7613 15.6953 25.7613 14.895C25.7613 14.0948 25.1125 13.446 24.3123 13.446C23.512 13.446 22.8633 14.0948 22.8633 14.895C22.8633 15.6953 23.512 16.344 24.3123 16.344Z" fill="#00BC79"/>
<path d="M30.4138 16.344C31.2141 16.344 31.8628 15.6953 31.8628 14.895C31.8628 14.0948 31.2141 13.446 30.4138 13.446C29.6136 13.446 28.9648 14.0948 28.9648 14.895C28.9648 15.6953 29.6136 16.344 30.4138 16.344Z" fill="#EF4452"/>
<path d="M27.3631 13.294C28.1633 13.294 28.8121 12.6453 28.8121 11.845C28.8121 11.0447 28.1633 10.396 27.3631 10.396C26.5628 10.396 25.9141 11.0447 25.9141 11.845C25.9141 12.6453 26.5628 13.294 27.3631 13.294Z" fill="#64A7FF"/>
<path d="M27.3631 19.394C28.1633 19.394 28.8121 18.7452 28.8121 17.945C28.8121 17.1447 28.1633 16.496 27.3631 16.496C26.5628 16.496 25.9141 17.1447 25.9141 17.945C25.9141 18.7452 26.5628 19.394 27.3631 19.394Z" fill="#FFC84D"/>
</g>
<defs>
<clipPath id="clip0_2746_1227">
<rect width="40" height="40" fill="white"/>
</clipPath>
</defs>
</svg>
