<svg width="40" height="40" viewBox="0 0 40 40" fill="none" xmlns="http://www.w3.org/2000/svg">
<g clip-path="url(#clip0_2196_827)">
<path d="M17.5465 19.789H24.7725C25.1415 19.789 25.4795 19.58 25.6435 19.248L33.2445 3.903C33.5645 3.257 33.0945 2.5 32.3735 2.5H25.1475C24.7785 2.5 24.4405 2.709 24.2765 3.041L16.6755 18.386C16.3555 19.032 16.8255 19.789 17.5465 19.789Z" fill="#D12030"/>
<path d="M22.4526 19.789H15.2266C14.8576 19.789 14.5196 19.58 14.3556 19.248L6.75458 3.903C6.43458 3.257 6.90458 2.5 7.62558 2.5H14.8516C15.2206 2.5 15.5586 2.709 15.7226 3.041L23.3236 18.386C23.6436 19.032 23.1736 19.789 22.4526 19.789Z" fill="#EF4452"/>
<path d="M19.9999 37.4999C27.247 37.4999 33.1219 31.6249 33.1219 24.3779C33.1219 17.1308 27.247 11.2559 19.9999 11.2559C12.7528 11.2559 6.87793 17.1308 6.87793 24.3779C6.87793 31.6249 12.7528 37.4999 19.9999 37.4999Z" fill="#FFAD00"/>
<path d="M19.9999 34.8749C25.7973 34.8749 30.4969 30.1752 30.4969 24.3779C30.4969 18.5805 25.7973 13.8809 19.9999 13.8809C14.2026 13.8809 9.50293 18.5805 9.50293 24.3779C9.50293 30.1752 14.2026 34.8749 19.9999 34.8749Z" fill="#FFC450"/>
<path d="M16.376 22.736V20.262L19.659 18.209H21.65V29.97H19.099V21.055L16.376 22.736Z" fill="white"/>
</g>
<defs>
<clipPath id="clip0_2196_827">
<rect width="40" height="40" fill="white"/>
</clipPath>
</defs>
</svg>
