<svg width="40" height="40" viewBox="0 0 40 40" fill="none" xmlns="http://www.w3.org/2000/svg">
<g clip-path="url(#clip0_2196_836)">
<path d="M17.5465 19.789H24.7725C25.1415 19.789 25.4795 19.58 25.6435 19.248L33.2445 3.903C33.5645 3.257 33.0945 2.5 32.3735 2.5H25.1475C24.7785 2.5 24.4405 2.709 24.2765 3.041L16.6755 18.386C16.3555 19.032 16.8255 19.789 17.5465 19.789Z" fill="#1E6EF4"/>
<path d="M22.4526 19.789H15.2266C14.8576 19.789 14.5196 19.58 14.3556 19.248L6.75458 3.903C6.43458 3.257 6.90458 2.5 7.62558 2.5H14.8516C15.2206 2.5 15.5586 2.709 15.7226 3.041L23.3236 18.386C23.6436 19.032 23.1736 19.789 22.4526 19.789Z" fill="#4592FB"/>
<path d="M19.9999 37.4999C27.247 37.4999 33.1219 31.6249 33.1219 24.3779C33.1219 17.1308 27.247 11.2559 19.9999 11.2559C12.7528 11.2559 6.87793 17.1308 6.87793 24.3779C6.87793 31.6249 12.7528 37.4999 19.9999 37.4999Z" fill="#8595AA"/>
<path d="M19.9999 34.8749C25.7973 34.8749 30.4969 30.1752 30.4969 24.3779C30.4969 18.5805 25.7973 13.8809 19.9999 13.8809C14.2026 13.8809 9.50293 18.5805 9.50293 24.3779C9.50293 30.1752 14.2026 34.8749 19.9999 34.8749Z" fill="#ABB7C7"/>
<path d="M19.9929 18.1309C22.8079 18.1309 24.1149 19.7179 24.1149 21.7869C24.1149 23.3729 23.2279 24.4469 21.9989 25.6289L19.6349 27.8849H24.1619V29.9689H16.1809V28.4279L20.0549 24.5859C21.2839 23.3719 21.5489 22.7819 21.5489 21.9569C21.5489 20.8059 20.8949 20.2289 19.9769 20.2289C19.0439 20.2289 18.4359 20.9449 18.4359 21.9569L15.8379 21.9409C15.9009 19.7949 17.6269 18.1299 19.9929 18.1299V18.1309Z" fill="white"/>
</g>
<defs>
<clipPath id="clip0_2196_836">
<rect width="40" height="40" fill="white"/>
</clipPath>
</defs>
</svg>
