<svg width="40" height="40" viewBox="0 0 40 40" fill="none" xmlns="http://www.w3.org/2000/svg">
<g clip-path="url(#clip0_2196_845)">
<path d="M17.5465 19.789H24.7725C25.1415 19.789 25.4795 19.58 25.6435 19.248L33.2445 3.903C33.5645 3.257 33.0945 2.5 32.3735 2.5H25.1475C24.7785 2.5 24.4405 2.709 24.2765 3.041L16.6755 18.386C16.3555 19.032 16.8255 19.789 17.5465 19.789Z" fill="#FF9000"/>
<path d="M22.4526 19.789H15.2266C14.8576 19.789 14.5196 19.58 14.3556 19.248L6.75458 3.903C6.43458 3.257 6.90458 2.5 7.62558 2.5H14.8516C15.2206 2.5 15.5586 2.709 15.7226 3.041L23.3236 18.386C23.6436 19.032 23.1736 19.789 22.4526 19.789Z" fill="#FFAD00"/>
<path d="M19.9999 37.4999C27.247 37.4999 33.1219 31.6249 33.1219 24.3779C33.1219 17.1308 27.247 11.2559 19.9999 11.2559C12.7528 11.2559 6.87793 17.1308 6.87793 24.3779C6.87793 31.6249 12.7528 37.4999 19.9999 37.4999Z" fill="#9C5522"/>
<path d="M19.9999 34.8749C25.7973 34.8749 30.4969 30.1752 30.4969 24.3779C30.4969 18.5805 25.7973 13.8809 19.9999 13.8809C14.2026 13.8809 9.50293 18.5805 9.50293 24.3779C9.50293 30.1752 14.2026 34.8749 19.9999 34.8749Z" fill="#CF712D"/>
<path d="M20.1426 28.1503C21.2936 28.1503 21.9006 27.5283 21.9166 26.6413C21.9316 25.6303 21.4346 25.1013 20.0346 25.1013H18.8056V22.9853H19.9876C21.0146 22.9853 21.5906 22.4093 21.5906 21.5693C21.5906 20.7603 21.0766 20.1843 20.0966 20.1843C19.1166 20.1843 18.4786 20.8073 18.3856 21.6323H15.6946C15.8496 19.5933 17.7476 18.0693 20.0966 18.0693C22.4456 18.0693 24.2036 19.3613 24.2036 21.3053C24.2036 22.5973 23.4566 23.6543 22.0096 23.9343C23.5966 24.1373 24.5296 25.2103 24.5296 26.6413C24.5296 28.7733 22.6936 30.2663 20.1426 30.2663C17.7616 30.2663 15.8016 28.8513 15.5996 26.7043H18.2916C18.4936 27.5753 19.1626 28.1503 20.1426 28.1503Z" fill="white"/>
</g>
<defs>
<clipPath id="clip0_2196_845">
<rect width="40" height="40" fill="white"/>
</clipPath>
</defs>
</svg>
